<svg xmlns="http://www.w3.org/2000/svg" width="240" height="180" aria-label="No results found" viewBox="0 0 240 180"><ellipse cx="118" cy="158" fill="var(--lisan-soft,#BBD5FF)" opacity=".35" rx="82" ry="10"/><g fill="var(--lisan-bg,#EAF2FF)"><rect width="120" height="32" x="40" y="30" rx="10"/><rect width="120" height="32" x="40" y="72" rx="10"/><rect width="86" height="32" x="40" y="114" opacity=".6" rx="10"/></g><g fill="var(--lisan-soft,#BBD5FF)"><rect width="44" height="8" x="52" y="42" rx="4"/><rect width="28" height="8" x="104" y="42" opacity=".6" rx="4"/><rect width="32" height="8" x="52" y="84" rx="4"/><rect width="46" height="8" x="92" y="84" opacity=".6" rx="4"/><rect width="38" height="8" x="52" y="126" opacity=".6" rx="4"/></g><circle cx="160" cy="98" r="34" fill="var(--lisan-surface,#FFFFFF)" fill-opacity=".78"/><g fill="none" stroke="var(--lisan-pri,#1769FF)" stroke-linecap="round"><circle cx="160" cy="98" r="34" stroke-width="9"/><path stroke-width="13" d="m185 123 18 18"/></g><g fill="var(--lisan-warning,#F79009)"><path d="M198 26c1.3 6 2.3 7 8.3 8.3-6 1.3-7 2.3-8.3 8.3-1.3-6-2.3-7-8.3-8.3 6-1.3 7-2.3 8.3-8.3"/><path d="M219 52c.8 3.8 1.5 4.5 5.3 5.3-3.8.8-4.5 1.5-5.3 5.3-.8-3.8-1.5-4.5-5.3-5.3 3.8-.8 4.5-1.5 5.3-5.3" opacity=".55"/></g></svg>